{"accessors":[{"name":"pCube1_1_positions","componentType":5126,"count":64,"min":[-59.501712799072266,-3.4785499572753906,-59.75703430175781],"max":[59.501712799072266,-0.11307299882173538,59.41135787963867],"type":"VEC3","bufferView":0,"byteOffset":0},{"name":"pCube1_1_normals","componentType":5126,"count":64,"min":[-1,-1,-1],"max":[1,1,1],"type":"VEC3","bufferView":0,"byteOffset":768},{"name":"pCube1_1_texcoords","componentType":5126,"count":64,"min":[0.17848700284957886,0.0829090029001236],"max":[2.924417018890381,2.9212329387664795],"type":"VEC2","bufferView":1,"byteOffset":0},{"name":"pCube1_1_0_indices","componentType":5123,"count":96,"min":[0],"max":[63],"type":"SCALAR","bufferView":2,"byteOffset":0}],"asset":{"generator":"obj2gltf","version":"2.0"},"buffers":[{"name":"Floor_texture_3","byteLength":2854452,"uri":"data:application/octet-stream;base64,"}],"bufferViews":[{"name":"bufferView_0","buffer":0,"byteLength":1536,"byteOffset":0,"byteStride":12,"target":34962},{"name":"bufferView_1","buffer":0,"byteLength":512,"byteOffset":1536,"byteStride":8,"target":34962},{"name":"bufferView_2","buffer":0,"byteLength":192,"byteOffset":2048,"target":34963},{"buffer":0,"byteOffset":2240,"byteLength":2852211}],"images":[{"name":"floor","mimeType":"image/png","bufferView":3}],"materials":[{"name":"lambert3SG","pbrMetallicRoughness":{"baseColorTexture":{"index":0},"baseColorFactor":[1,1,1,1],"metallicFactor":0,"roughnessFactor":1},"emissiveFactor":[0,0,0],"alphaMode":"OPAQUE","doubleSided":false}],"meshes":[{"name":"pCube1_1","primitives":[{"attributes":{"POSITION":0,"NORMAL":1,"TEXCOORD_0":2},"indices":3,"material":0,"mode":4}]}],"nodes":[{"name":"pCube1","mesh":0}],"samplers":[{"magFilter":9729,"minFilter":9986,"wrapS":10497,"wrapT":10497}],"scene":0,"scenes":[{"nodes":[0]}],"textures":[{"name":"floor","sampler":0,"source":0}]}
