{"accessors":[{"name":"pasted__glass1_1_positions","componentType":5126,"count":334,"min":[-0.2276889979839325,1.4544440507888794,-1.3973519802093506],"max":[0.21309000253677368,1.874426007270813,-0.9565719962120056],"type":"VEC3","bufferView":0,"byteOffset":0},{"name":"pasted__glass1_1_normals","componentType":5126,"count":334,"min":[-0.9999729990959167,-1,-0.9999729990959167],"max":[0.9999729990959167,0.9999740123748779,0.9999729990959167],"type":"VEC3","bufferView":0,"byteOffset":4008},{"name":"pasted__glass1_1_texcoords","componentType":5126,"count":334,"min":[0.05000299960374832,0.014140999875962734],"max":[0.9499970078468323,0.985696017742157],"type":"VEC2","bufferView":1,"byteOffset":0},{"name":"pasted__glass1_1_0_indices","componentType":5123,"count":1314,"min":[0],"max":[333],"type":"SCALAR","bufferView":2,"byteOffset":0}],"asset":{"generator":"obj2gltf","version":"2.0"},"buffers":[{"name":"jar_3","byteLength":89964,"uri":"data:application/octet-stream;base64,"}],"bufferViews":[{"name":"bufferView_0","buffer":0,"byteLength":8016,"byteOffset":0,"byteStride":12,"target":34962},{"name":"bufferView_1","buffer":0,"byteLength":2672,"byteOffset":8016,"byteStride":8,"target":34962},{"name":"bufferView_2","buffer":0,"byteLength":2628,"byteOffset":10688,"target":34963},{"buffer":0,"byteOffset":13316,"byteLength":76646}],"images":[{"name":"jar_3","mimeType":"image/png","bufferView":3}],"materials":[{"name":"phong1SG","pbrMetallicRoughness":{"baseColorTexture":{"index":0},"baseColorFactor":[1,1,1,1],"metallicFactor":0,"roughnessFactor":0.982},"emissiveFactor":[0,0,0],"alphaMode":"OPAQUE","doubleSided":false}],"meshes":[{"name":"pasted__glass1_1","primitives":[{"attributes":{"POSITION":0,"NORMAL":1,"TEXCOORD_0":2},"indices":3,"material":0,"mode":4}]}],"nodes":[{"name":"pasted__glass1","mesh":0}],"samplers":[{"magFilter":9729,"minFilter":9986,"wrapS":10497,"wrapT":10497}],"scene":0,"scenes":[{"nodes":[0]}],"textures":[{"name":"jar_3","sampler":0,"source":0}]}
