{"accessors":[{"name":"textureEditorIsolateSelectSet pasted__glass3_1_positions","componentType":5126,"count":334,"min":[-2.177398920059204,1.4544440507888794,-1.3543610572814941],"max":[-1.8226009607315063,1.8799690008163452,-0.9995629787445068],"type":"VEC3","bufferView":0,"byteOffset":0},{"name":"textureEditorIsolateSelectSet pasted__glass3_1_normals","componentType":5126,"count":334,"min":[-0.9999729990959167,-1,-0.9999729990959167],"max":[0.9999729990959167,0.9999740123748779,0.9999729990959167],"type":"VEC3","bufferView":0,"byteOffset":4008},{"name":"textureEditorIsolateSelectSet pasted__glass3_1_texcoords","componentType":5126,"count":334,"min":[0.013910000212490559,0.034926000982522964],"max":[0.9919760227203369,0.9853910207748413],"type":"VEC2","bufferView":1,"byteOffset":0},{"name":"textureEditorIsolateSelectSet pasted__glass3_1_0_indices","componentType":5123,"count":1314,"min":[0],"max":[333],"type":"SCALAR","bufferView":2,"byteOffset":0}],"asset":{"generator":"obj2gltf","version":"2.0"},"buffers":[{"name":"jar_2","byteLength":2093524,"uri":"data:application/octet-stream;base64,"}],"bufferViews":[{"name":"bufferView_0","buffer":0,"byteLength":8016,"byteOffset":0,"byteStride":12,"target":34962},{"name":"bufferView_1","buffer":0,"byteLength":2672,"byteOffset":8016,"byteStride":8,"target":34962},{"name":"bufferView_2","buffer":0,"byteLength":2628,"byteOffset":10688,"target":34963},{"buffer":0,"byteOffset":13316,"byteLength":2080205}],"images":[{"name":"jar_2","mimeType":"image/png","bufferView":3}],"materials":[{"name":"blinn3SG","pbrMetallicRoughness":{"baseColorTexture":{"index":0},"baseColorFactor":[1,1,1,1],"metallicFactor":0,"roughnessFactor":1},"emissiveFactor":[0,0,0],"alphaMode":"OPAQUE","doubleSided":false}],"meshes":[{"name":"textureEditorIsolateSelectSet pasted__glass3_1","primitives":[{"attributes":{"POSITION":0,"NORMAL":1,"TEXCOORD_0":2},"indices":3,"material":0,"mode":4}]}],"nodes":[{"name":"textureEditorIsolateSelectSet pasted__glass3","mesh":0}],"samplers":[{"magFilter":9729,"minFilter":9986,"wrapS":10497,"wrapT":10497}],"scene":0,"scenes":[{"nodes":[0]}],"textures":[{"name":"jar_2","sampler":0,"source":0}]}
