{"accessors":[{"name":"pCube22 rack polySurface1_1_positions","componentType":5126,"count":120,"min":[-1.9066380262374878,0.0420060008764267,-1.2653520107269287],"max":[-1.7566720247268677,1.0388070344924927,-0.7714440226554871],"type":"VEC3","bufferView":0,"byteOffset":0},{"name":"pCube22 rack polySurface1_1_normals","componentType":5126,"count":120,"min":[-1,-0.907489001750946,-0.907489001750946],"max":[1,0.907489001750946,0.907489001750946],"type":"VEC3","bufferView":0,"byteOffset":13920},{"name":"pCube22 rack polySurface1_1_texcoords","componentType":5126,"count":120,"min":[0.35309699177742004,0.013024000450968742],"max":[0.42343398928642273,0.9869760274887085],"type":"VEC2","bufferView":1,"byteOffset":0},{"name":"pCube22 rack polySurface1_1_0_indices","componentType":5123,"count":180,"min":[0],"max":[119],"type":"SCALAR","bufferView":2,"byteOffset":0},{"name":"pCube21 rack polySurface1_1_positions","componentType":5126,"count":120,"min":[-1.9112110137939453,0.037303000688552856,-0.7632899880409241],"max":[-1.7612450122833252,1.033926010131836,-0.2689650058746338],"type":"VEC3","bufferView":0,"byteOffset":1440},{"name":"pCube21 rack polySurface1_1_normals","componentType":5126,"count":120,"min":[-1,-0.9073060154914856,-0.9073060154914856],"max":[1,0.9073060154914856,0.9073060154914856],"type":"VEC3","bufferView":0,"byteOffset":15360},{"name":"pCube21 rack polySurface1_1_texcoords","componentType":5126,"count":120,"min":[0.00033999999868683517,0.014651999808847904],"max":[0.16425999999046326,0.9853479862213135],"type":"VEC2","bufferView":1,"byteOffset":960},{"name":"pCube21 rack polySurface1_1_0_indices","componentType":5123,"count":180,"min":[0],"max":[119],"type":"SCALAR","bufferView":2,"byteOffset":360},{"name":"pCube20 rack polySurface1_1_positions","componentType":5126,"count":120,"min":[-3.1487579345703125,0.0420060008764267,-1.2653520107269287],"max":[-2.9987919330596924,1.0388070344924927,-0.7714440226554871],"type":"VEC3","bufferView":0,"byteOffset":2880},{"name":"pCube20 rack polySurface1_1_normals","componentType":5126,"count":120,"min":[-1,-0.907489001750946,-0.907489001750946],"max":[1,0.907489001750946,0.907489001750946],"type":"VEC3","bufferView":0,"byteOffset":16800},{"name":"pCube20 rack polySurface1_1_texcoords","componentType":5126,"count":120,"min":[0.34527599811553955,0.0077390000224113464],"max":[0.4291659891605377,0.9922609925270081],"type":"VEC2","bufferView":1,"byteOffset":1920},{"name":"pCube20 rack polySurface1_1_0_indices","componentType":5123,"count":180,"min":[0],"max":[119],"type":"SCALAR","bufferView":2,"byteOffset":720},{"name":"pCube25 rack polySurface1_1_positions","componentType":5126,"count":152,"min":[-3.1359150409698486,0.0640769973397255,-1.2810280323028564],"max":[-1.7559139728546143,1.0260200500488281,-0.8237169981002808],"type":"VEC3","bufferView":0,"byteOffset":4320},{"name":"pCube25 rack polySurface1_1_normals","componentType":5126,"count":152,"min":[-0.8140820264816284,-0.7377269864082336,-0.9208300113677979],"max":[0.8140820264816284,0.7377269864082336,0.9208300113677979],"type":"VEC3","bufferView":0,"byteOffset":18240},{"name":"pCube25 rack polySurface1_1_texcoords","componentType":5126,"count":152,"min":[0.3511289954185486,0.014651999808847904],"max":[0.4295780062675476,0.9853479862213135],"type":"VEC2","bufferView":1,"byteOffset":2880},{"name":"pCube25 rack polySurface1_1_0_indices","componentType":5123,"count":228,"min":[0],"max":[151],"type":"SCALAR","bufferView":2,"byteOffset":1080},{"name":"pCube24 rack polySurface1_1_positions","componentType":5126,"count":120,"min":[-3.1222751140594482,0.049577001482248306,-1.29659104347229],"max":[-1.769657015800476,1.044437050819397,-0.816644012928009],"type":"VEC3","bufferView":0,"byteOffset":6144},{"name":"pCube24 rack polySurface1_1_normals","componentType":5126,"count":120,"min":[-0.7944089770317078,-0.7209169864654541,-0.907489001750946],"max":[0.7944089770317078,0.7209169864654541,0.907489001750946],"type":"VEC3","bufferView":0,"byteOffset":20064},{"name":"pCube24 rack polySurface1_1_texcoords","componentType":5126,"count":120,"min":[0.33888500928878784,0.016279999166727066],"max":[0.4230259954929352,0.9837200045585632],"type":"VEC2","bufferView":1,"byteOffset":4096},{"name":"pCube24 rack polySurface1_1_0_indices","componentType":5123,"count":180,"min":[0],"max":[119],"type":"SCALAR","bufferView":2,"byteOffset":1536},{"name":"pCube23 rack polySurface1_1_positions","componentType":5126,"count":120,"min":[-3.1213839054107666,0.5580180287361145,-0.6633570194244385],"max":[-1.7884869575500488,0.7132419943809509,-0.5589600205421448],"type":"VEC3","bufferView":0,"byteOffset":7584},{"name":"pCube23 rack polySurface1_1_normals","componentType":5126,"count":120,"min":[-1,-0.9073060154914856,-0.9073060154914856],"max":[1,0.9073060154914856,0.9073060154914856],"type":"VEC3","bufferView":0,"byteOffset":21504},{"name":"pCube23 rack polySurface1_1_texcoords","componentType":5126,"count":120,"min":[0.3415380120277405,0.0065390001982450485],"max":[0.4370810091495514,0.993461012840271],"type":"VEC2","bufferView":1,"byteOffset":5056},{"name":"pCube23 rack polySurface1_1_0_indices","componentType":5123,"count":180,"min":[0],"max":[119],"type":"SCALAR","bufferView":2,"byteOffset":1896},{"name":"pCube16 rack polySurface1_1_positions","componentType":5126,"count":120,"min":[-3.1533310413360596,0.037303000688552856,-0.7632899880409241],"max":[-3.0033650398254395,1.033926010131836,-0.2689650058746338],"type":"VEC3","bufferView":0,"byteOffset":9024},{"name":"pCube16 rack polySurface1_1_normals","componentType":5126,"count":120,"min":[-1,-0.9073060154914856,-0.9073060154914856],"max":[1,0.9073060154914856,0.9073060154914856],"type":"VEC3","bufferView":0,"byteOffset":22944},{"name":"pCube16 rack polySurface1_1_texcoords","componentType":5126,"count":120,"min":[0.17439299821853638,0.013024000450968742],"max":[0.3285439908504486,0.9869760274887085],"type":"VEC2","bufferView":1,"byteOffset":6016},{"name":"pCube16 rack polySurface1_1_0_indices","componentType":5123,"count":180,"min":[0],"max":[119],"type":"SCALAR","bufferView":2,"byteOffset":2256},{"name":"pCylinder3 rack polySurface1_1_positions","componentType":5126,"count":144,"min":[-3.1336419582366943,0.24657399952411652,-0.38152098655700684],"max":[-1.775560975074768,0.30770498514175415,-0.320389986038208],"type":"VEC3","bufferView":0,"byteOffset":10464},{"name":"pCylinder3 rack polySurface1_1_normals","componentType":5126,"count":144,"min":[-1,-0.9238799810409546,-0.9238799810409546],"max":[1,0.9238799810409546,0.9238799810409546],"type":"VEC3","bufferView":0,"byteOffset":24384},{"name":"pCylinder3 rack polySurface1_1_texcoords","componentType":5126,"count":144,"min":[0.8737090229988098,0.024190999567508698],"max":[0.9577080011367798,0.6838369965553284],"type":"VEC2","bufferView":1,"byteOffset":6976},{"name":"pCylinder3 rack polySurface1_1_0_indices","componentType":5123,"count":192,"min":[0],"max":[143],"type":"SCALAR","bufferView":2,"byteOffset":2616},{"name":"pCylinder2 rack polySurface1_1_positions","componentType":5126,"count":144,"min":[-3.164315938949585,1.009382963180542,-0.8100699782371521],"max":[-1.7448879480361938,1.0946409702301025,-0.7248119711875916],"type":"VEC3","bufferView":0,"byteOffset":12192},{"name":"pCylinder2 rack polySurface1_1_normals","componentType":5126,"count":144,"min":[-1,-0.9238799810409546,-0.9238799810409546],"max":[1,0.9238799810409546,0.9238799810409546],"type":"VEC3","bufferView":0,"byteOffset":26112},{"name":"pCylinder2 rack polySurface1_1_texcoords","componentType":5126,"count":144,"min":[0.7564690113067627,0.04258999973535538],"max":[0.8805729746818542,0.6875],"type":"VEC2","bufferView":1,"byteOffset":8128},{"name":"pCylinder2 rack polySurface1_1_0_indices","componentType":5123,"count":192,"min":[0],"max":[143],"type":"SCALAR","bufferView":2,"byteOffset":3000}],"asset":{"generator":"obj2gltf","version":"2.0"},"buffers":[{"name":"rack_textured","byteLength":2859888,"uri":"data:application/octet-stream;base64,"}],"bufferViews":[{"name":"bufferView_0","buffer":0,"byteLength":27840,"byteOffset":0,"byteStride":12,"target":34962},{"name":"bufferView_1","buffer":0,"byteLength":9280,"byteOffset":27840,"byteStride":8,"target":34962},{"name":"bufferView_2","buffer":0,"byteLength":3384,"byteOffset":37120,"target":34963},{"buffer":0,"byteOffset":40504,"byteLength":2819384}],"images":[{"name":"rack_texture","mimeType":"image/png","bufferView":3}],"materials":[{"name":"lambert2SG","pbrMetallicRoughness":{"baseColorTexture":{"index":0},"baseColorFactor":[1,1,1,1],"metallicFactor":0,"roughnessFactor":1},"emissiveFactor":[0,0,0],"alphaMode":"OPAQUE","doubleSided":false}],"meshes":[{"name":"pCube22 rack polySurface1_1","primitives":[{"attributes":{"POSITION":0,"NORMAL":1,"TEXCOORD_0":2},"indices":3,"material":0,"mode":4}]},{"name":"pCube21 rack polySurface1_1","primitives":[{"attributes":{"POSITION":4,"NORMAL":5,"TEXCOORD_0":6},"indices":7,"material":0,"mode":4}]},{"name":"pCube20 rack polySurface1_1","primitives":[{"attributes":{"POSITION":8,"NORMAL":9,"TEXCOORD_0":10},"indices":11,"material":0,"mode":4}]},{"name":"pCube25 rack polySurface1_1","primitives":[{"attributes":{"POSITION":12,"NORMAL":13,"TEXCOORD_0":14},"indices":15,"material":0,"mode":4}]},{"name":"pCube24 rack polySurface1_1","primitives":[{"attributes":{"POSITION":16,"NORMAL":17,"TEXCOORD_0":18},"indices":19,"material":0,"mode":4}]},{"name":"pCube23 rack polySurface1_1","primitives":[{"attributes":{"POSITION":20,"NORMAL":21,"TEXCOORD_0":22},"indices":23,"material":0,"mode":4}]},{"name":"pCube16 rack polySurface1_1","primitives":[{"attributes":{"POSITION":24,"NORMAL":25,"TEXCOORD_0":26},"indices":27,"material":0,"mode":4}]},{"name":"pCylinder3 rack polySurface1_1","primitives":[{"attributes":{"POSITION":28,"NORMAL":29,"TEXCOORD_0":30},"indices":31,"material":0,"mode":4}]},{"name":"pCylinder2 rack polySurface1_1","primitives":[{"attributes":{"POSITION":32,"NORMAL":33,"TEXCOORD_0":34},"indices":35,"material":0,"mode":4}]}],"nodes":[{"name":"pCube22 rack polySurface1","mesh":0},{"name":"pCube21 rack polySurface1","mesh":1},{"name":"pCube20 rack polySurface1","mesh":2},{"name":"pCube25 rack polySurface1","mesh":3},{"name":"pCube24 rack polySurface1","mesh":4},{"name":"pCube23 rack polySurface1","mesh":5},{"name":"pCube16 rack polySurface1","mesh":6},{"name":"pCylinder3 rack polySurface1","mesh":7},{"name":"pCylinder2 rack polySurface1","mesh":8}],"samplers":[{"magFilter":9729,"minFilter":9986,"wrapS":10497,"wrapT":10497}],"scene":0,"scenes":[{"nodes":[0,1,2,3,4,5,6,7,8]}],"textures":[{"name":"rack_texture","sampler":0,"source":0}]}
