# This file uses centimeters as units for non-parametric coordinates.

mtllib stick.mtl
g default
v 0.030686 0.779979 -0.057959
v -0.030686 0.779979 -0.057959
v -0.061371 0.779979 -0.004810
v -0.030686 0.779979 0.048339
v 0.030686 0.779979 0.048339
v 0.061371 0.779979 -0.004810
v 0.070408 0.846519 -0.126761
v -0.070408 0.846519 -0.126761
v -0.140816 0.846519 -0.004810
v -0.070408 0.846519 0.117140
v 0.070408 0.846519 0.117140
v 0.140816 0.846519 -0.004810
v 0.090895 0.937414 -0.162245
v -0.090895 0.937414 -0.162245
v -0.181790 0.937414 -0.004810
v -0.090895 0.937414 0.152625
v 0.090895 0.937414 0.152625
v 0.181790 0.937414 -0.004810
v 0.078717 1.028309 -0.141152
v -0.078717 1.028309 -0.141152
v -0.157435 1.028309 -0.004810
v -0.078717 1.028309 0.131532
v 0.078717 1.028309 0.131532
v 0.157435 1.028309 -0.004810
v 0.045447 1.094849 -0.083527
v -0.045447 1.094849 -0.083527
v -0.090895 1.094849 -0.004810
v -0.045447 1.094849 0.073907
v 0.045447 1.094849 0.073907
v 0.090895 1.094849 -0.004810
v 0.000000 1.119204 -0.004810
v 0.057433 0.730021 -0.104286
v -0.057433 0.730021 -0.104286
v 0.000000 0.779086 -0.004810
v -0.114865 0.730021 -0.004810
v -0.057433 0.730021 0.094666
v 0.057433 0.730021 0.094666
v 0.114865 0.730021 -0.004810
vt 0.000000 0.166667
vt 0.166667 0.166667
vt 0.333333 0.166667
vt 0.500000 0.166667
vt 0.666667 0.166667
vt 0.833333 0.166667
vt 1.000000 0.166667
vt 0.000000 0.333333
vt 0.166667 0.333333
vt 0.333333 0.333333
vt 0.500000 0.333333
vt 0.666667 0.333333
vt 0.833333 0.333333
vt 1.000000 0.333333
vt 0.000000 0.500000
vt 0.166667 0.500000
vt 0.333333 0.500000
vt 0.500000 0.500000
vt 0.666667 0.500000
vt 0.833333 0.500000
vt 1.000000 0.500000
vt 0.000000 0.666667
vt 0.166667 0.666667
vt 0.333333 0.666667
vt 0.500000 0.666667
vt 0.666667 0.666667
vt 0.833333 0.666667
vt 1.000000 0.666667
vt 0.000000 0.833333
vt 0.166667 0.833333
vt 0.333333 0.833333
vt 0.500000 0.833333
vt 0.666667 0.833333
vt 0.833333 0.833333
vt 1.000000 0.833333
vt 0.083333 0.000000
vt 0.250000 0.000000
vt 0.416667 0.000000
vt 0.583333 0.000000
vt 0.750000 0.000000
vt 0.916667 0.000000
vt 0.083333 1.000000
vt 0.250000 1.000000
vt 0.416667 1.000000
vt 0.583333 1.000000
vt 0.750000 1.000000
vt 0.916667 1.000000
vt 0.166667 0.166667
vt 0.000000 0.166667
vt 0.333333 0.166667
vt 0.500000 0.166667
vt 0.666667 0.166667
vt 0.833333 0.166667
vt 1.000000 0.166667
vn 0.000000 -0.718824 -0.695192
vn 0.000000 -0.718824 -0.695192
vn 0.000000 -0.718824 -0.695192
vn 0.000000 -0.718824 -0.695192
vn -0.602054 -0.718824 -0.347596
vn -0.602054 -0.718824 -0.347596
vn -0.602055 -0.718824 -0.347596
vn -0.602054 -0.718824 -0.347596
vn -0.602054 -0.718824 0.347597
vn -0.602054 -0.718824 0.347597
vn -0.602054 -0.718824 0.347597
vn -0.602054 -0.718824 0.347597
vn 0.000000 -0.718825 0.695192
vn 0.000000 -0.718825 0.695192
vn 0.000000 -0.718825 0.695192
vn 0.000000 -0.718825 0.695192
vn 0.602054 -0.718824 0.347597
vn 0.602054 -0.718824 0.347597
vn 0.602054 -0.718824 0.347597
vn 0.602054 -0.718824 0.347597
vn 0.602054 -0.718824 -0.347596
vn 0.602054 -0.718824 -0.347596
vn 0.602054 -0.718824 -0.347596
vn 0.602054 -0.718824 -0.347596
vn 0.000000 -0.363656 -0.931533
vn 0.000000 -0.363656 -0.931533
vn 0.000000 -0.363656 -0.931533
vn 0.000000 -0.363656 -0.931533
vn -0.806732 -0.363656 -0.465766
vn -0.806732 -0.363656 -0.465766
vn -0.806731 -0.363656 -0.465766
vn -0.806732 -0.363656 -0.465766
vn -0.806731 -0.363657 0.465767
vn -0.806731 -0.363657 0.465767
vn -0.806731 -0.363657 0.465767
vn -0.806731 -0.363657 0.465767
vn 0.000000 -0.363658 0.931533
vn 0.000000 -0.363658 0.931533
vn 0.000000 -0.363658 0.931533
vn 0.000000 -0.363658 0.931533
vn 0.806731 -0.363657 0.465767
vn 0.806731 -0.363657 0.465767
vn 0.806731 -0.363657 0.465767
vn 0.806731 -0.363657 0.465767
vn 0.806732 -0.363656 -0.465766
vn 0.806732 -0.363656 -0.465766
vn 0.806732 -0.363656 -0.465766
vn 0.806732 -0.363656 -0.465766
vn 0.000000 0.226045 -0.974117
vn 0.000000 0.226045 -0.974117
vn 0.000000 0.226045 -0.974117
vn 0.000000 0.226045 -0.974117
vn -0.843610 0.226045 -0.487058
vn -0.843610 0.226045 -0.487058
vn -0.843610 0.226045 -0.487058
vn -0.843610 0.226045 -0.487058
vn -0.843610 0.226045 0.487058
vn -0.843610 0.226045 0.487058
vn -0.843610 0.226045 0.487059
vn -0.843610 0.226045 0.487058
vn 0.000000 0.226046 0.974117
vn 0.000000 0.226046 0.974117
vn 0.000000 0.226046 0.974117
vn 0.000000 0.226046 0.974117
vn 0.843610 0.226045 0.487059
vn 0.843610 0.226045 0.487059
vn 0.843610 0.226045 0.487059
vn 0.843610 0.226045 0.487059
vn 0.843610 0.226045 -0.487058
vn 0.843610 0.226045 -0.487058
vn 0.843610 0.226045 -0.487058
vn 0.843610 0.226045 -0.487058
vn 0.000000 0.654654 -0.755929
vn 0.000000 0.654654 -0.755929
vn 0.000000 0.654654 -0.755929
vn 0.000000 0.654654 -0.755929
vn -0.654653 0.654654 -0.377964
vn -0.654653 0.654654 -0.377964
vn -0.654653 0.654654 -0.377964
vn -0.654653 0.654654 -0.377964
vn -0.654653 0.654654 0.377964
vn -0.654653 0.654654 0.377965
vn -0.654653 0.654654 0.377964
vn -0.654653 0.654654 0.377964
vn 0.000000 0.654654 0.755929
vn 0.000000 0.654654 0.755929
vn 0.000000 0.654654 0.755929
vn 0.000000 0.654654 0.755929
vn 0.654653 0.654654 0.377964
vn 0.654653 0.654654 0.377964
vn 0.654653 0.654654 0.377964
vn 0.654653 0.654654 0.377964
vn 0.654653 0.654654 -0.377964
vn 0.654653 0.654654 -0.377964
vn 0.654653 0.654654 -0.377964
vn 0.654653 0.654654 -0.377964
vn 0.000000 -0.896844 0.442348
vn 0.000000 -0.896844 0.442348
vn 0.000000 -0.896844 0.442348
vn 0.383085 -0.896844 0.221174
vn 0.383085 -0.896844 0.221174
vn 0.383085 -0.896844 0.221174
vn 0.383085 -0.896843 -0.221174
vn 0.383085 -0.896843 -0.221174
vn 0.383085 -0.896843 -0.221174
vn -0.000001 -0.896843 -0.442349
vn -0.000001 -0.896843 -0.442349
vn -0.000001 -0.896843 -0.442349
vn -0.383085 -0.896843 -0.221175
vn -0.383085 -0.896843 -0.221175
vn -0.383085 -0.896843 -0.221175
vn -0.383085 -0.896844 0.221174
vn -0.383085 -0.896844 0.221174
vn -0.383085 -0.896844 0.221174
vn 0.000000 0.955319 -0.295576
vn 0.000000 0.955319 -0.295576
vn 0.000000 0.955319 -0.295576
vn -0.255977 0.955319 -0.147788
vn -0.255977 0.955319 -0.147788
vn -0.255977 0.955319 -0.147789
vn -0.255977 0.955319 0.147788
vn -0.255977 0.955319 0.147788
vn -0.255977 0.955319 0.147788
vn 0.000000 0.955319 0.295577
vn 0.000000 0.955319 0.295577
vn 0.000000 0.955319 0.295577
vn 0.255977 0.955319 0.147789
vn 0.255977 0.955319 0.147789
vn 0.255977 0.955319 0.147789
vn 0.255977 0.955319 -0.147788
vn 0.255977 0.955319 -0.147788
vn 0.255977 0.955319 -0.147788
vn 0.000000 0.679959 -0.733250
vn 0.000000 0.679959 -0.733250
vn 0.000000 0.679959 -0.733250
vn 0.000000 0.679959 -0.733250
vn -0.635013 0.679959 -0.366625
vn -0.635013 0.679959 -0.366625
vn -0.635013 0.679959 -0.366625
vn -0.635013 0.679959 -0.366625
vn -0.635012 0.679960 0.366625
vn -0.635012 0.679960 0.366625
vn -0.635012 0.679960 0.366625
vn -0.635012 0.679960 0.366625
vn 0.000001 0.679961 0.733249
vn 0.000001 0.679961 0.733249
vn 0.000001 0.679961 0.733249
vn 0.000001 0.679960 0.733249
vn 0.635012 0.679960 0.366626
vn 0.635012 0.679960 0.366626
vn 0.635012 0.679960 0.366626
vn 0.635012 0.679960 0.366626
vn 0.635013 0.679960 -0.366625
vn 0.635013 0.679960 -0.366624
vn 0.635013 0.679960 -0.366625
vn 0.635013 0.679960 -0.366625
s off
g pSphere2 group3
usemtl initialShadingGroup
f 1/1/1 2/2/2 8/9/3 7/8/4
f 2/2/5 3/3/6 9/10/7 8/9/8
f 3/3/9 4/4/10 10/11/11 9/10/12
f 4/4/13 5/5/14 11/12/15 10/11/16
f 5/5/17 6/6/18 12/13/19 11/12/20
f 6/6/21 1/7/22 7/14/23 12/13/24
f 7/8/25 8/9/26 14/16/27 13/15/28
f 8/9/29 9/10/30 15/17/31 14/16/32
f 9/10/33 10/11/34 16/18/35 15/17/36
f 10/11/37 11/12/38 17/19/39 16/18/40
f 11/12/41 12/13/42 18/20/43 17/19/44
f 12/13/45 7/14/46 13/21/47 18/20/48
f 13/15/49 14/16/50 20/23/51 19/22/52
f 14/16/53 15/17/54 21/24/55 20/23/56
f 15/17/57 16/18/58 22/25/59 21/24/60
f 16/18/61 17/19/62 23/26/63 22/25/64
f 17/19/65 18/20/66 24/27/67 23/26/68
f 18/20/69 13/21/70 19/28/71 24/27/72
f 19/22/73 20/23/74 26/30/75 25/29/76
f 20/23/77 21/24/78 27/31/79 26/30/80
f 21/24/81 22/25/82 28/32/83 27/31/84
f 22/25/85 23/26/86 29/33/87 28/32/88
f 23/26/89 24/27/90 30/34/91 29/33/92
f 24/27/93 19/28/94 25/35/95 30/34/96
f 33/48/97 32/49/98 34/36/99
f 35/50/100 33/48/101 34/37/102
f 36/51/103 35/50/104 34/38/105
f 37/52/106 36/51/107 34/39/108
f 38/53/109 37/52/110 34/40/111
f 32/54/112 38/53/113 34/41/114
f 25/29/115 26/30/116 31/42/117
f 26/30/118 27/31/119 31/43/120
f 27/31/121 28/32/122 31/44/123
f 28/32/124 29/33/125 31/45/126
f 29/33/127 30/34/128 31/46/129
f 30/34/130 25/35/131 31/47/132
f 2/2/133 1/1/134 32/49/135 33/48/136
f 3/3/137 2/2/138 33/48/139 35/50/140
f 4/4/141 3/3/142 35/50/143 36/51/144
f 5/5/145 4/4/146 36/51/147 37/52/148
f 6/6/149 5/5/150 37/52/151 38/53/152
f 1/7/153 6/6/154 38/53/155 32/54/156
g default
v 0.021060 0.011864 -0.041796
v -0.021060 0.011864 -0.041796
v -0.042119 0.011864 -0.005319
v -0.021060 0.011864 0.031157
v 0.021060 0.011864 0.031157
v 0.042119 0.011864 -0.005319
v 0.021060 0.845776 -0.041796
v -0.021060 0.845776 -0.041796
v -0.042119 0.845776 -0.005319
v -0.021060 0.845776 0.031157
v 0.021060 0.845776 0.031157
v 0.042119 0.845776 -0.005319
v 0.000000 0.011864 -0.005319
vt 0.578125 0.020934
vt 0.421875 0.020934
vt 0.343750 0.156250
vt 0.421875 0.291566
vt 0.578125 0.291566
vt 0.656250 0.156250
vt 0.375000 0.312500
vt 0.416667 0.312500
vt 0.458333 0.312500
vt 0.500000 0.312500
vt 0.541667 0.312500
vt 0.583333 0.312500
vt 0.625000 0.312500
vt 0.375000 0.688440
vt 0.416667 0.688440
vt 0.458333 0.688440
vt 0.500000 0.688440
vt 0.541667 0.688440
vt 0.583333 0.688440
vt 0.625000 0.688440
vt 0.500000 0.150000
vn 0.000000 0.000000 -1.000000
vn 0.000000 0.000000 -1.000000
vn 0.000000 0.000000 -1.000000
vn 0.000000 0.000000 -1.000000
vn -0.866025 0.000000 -0.500000
vn -0.866025 0.000000 -0.500000
vn -0.866025 0.000000 -0.500000
vn -0.866025 0.000000 -0.500000
vn -0.866025 0.000000 0.500000
vn -0.866025 0.000000 0.500000
vn -0.866025 0.000000 0.500000
vn -0.866025 0.000000 0.500000
vn -0.000000 0.000000 1.000000
vn -0.000000 0.000000 1.000000
vn -0.000000 0.000000 1.000000
vn -0.000000 0.000000 1.000000
vn 0.866025 0.000000 0.500000
vn 0.866025 0.000000 0.500000
vn 0.866025 0.000000 0.500000
vn 0.866025 0.000000 0.500000
vn 0.866025 0.000000 -0.500000
vn 0.866025 0.000000 -0.500000
vn 0.866025 0.000000 -0.500000
vn 0.866025 0.000000 -0.500000
vn 0.000000 -1.000000 0.000000
vn 0.000000 -1.000000 0.000000
vn 0.000000 -1.000000 0.000000
vn 0.000000 -1.000000 0.000000
vn 0.000000 -1.000000 -0.000000
vn 0.000000 -1.000000 -0.000000
vn 0.000000 -1.000000 0.000000
s off
g group3 pCylinder2
usemtl lambert4SG
f 39/61/157 40/62/158 46/69/159 45/68/160
f 40/62/161 41/63/162 47/70/163 46/69/164
f 41/63/165 42/64/166 48/71/167 47/70/168
f 42/64/169 43/65/170 49/72/171 48/71/172
f 43/65/173 44/66/174 50/73/175 49/72/176
f 44/66/177 39/67/178 45/74/179 50/73/180
s 1
f 40/56/181 39/55/182 51/75/183
f 41/57/184 40/56/181 51/75/183
f 42/58/185 41/57/184 51/75/183
f 43/59/186 42/58/185 51/75/183
f 44/60/187 43/59/186 51/75/183
f 39/55/182 44/60/187 51/75/183
