{"accessors":[{"name":"pSphere2 group3_1_positions","componentType":5126,"count":156,"min":[-0.18178999423980713,0.7300209999084473,-0.1622450053691864],"max":[0.18178999423980713,1.119204044342041,0.15262499451637268],"type":"VEC3","bufferView":0,"byteOffset":0},{"name":"pSphere2 group3_1_normals","componentType":5126,"count":156,"min":[-0.8436099886894226,-0.8968440294265747,-0.9741169810295105],"max":[0.8436099886894226,0.9553189873695374,0.9741169810295105],"type":"VEC3","bufferView":0,"byteOffset":2244},{"name":"pSphere2 group3_1_texcoords","componentType":5126,"count":156,"min":[0,0],"max":[1,1],"type":"VEC2","bufferView":1,"byteOffset":0},{"name":"pSphere2 group3_1_0_indices","componentType":5123,"count":216,"min":[0],"max":[155],"type":"SCALAR","bufferView":2,"byteOffset":0},{"name":"group3 pCylinder2_1_positions","componentType":5126,"count":31,"min":[-0.04211900010704994,0.011864000000059605,-0.0417959988117218],"max":[0.04211900010704994,0.8457760214805603,0.031156999990344048],"type":"VEC3","bufferView":0,"byteOffset":1872},{"name":"group3 pCylinder2_1_normals","componentType":5126,"count":31,"min":[-0.8660249710083008,-1,-1],"max":[0.8660249710083008,0,1],"type":"VEC3","bufferView":0,"byteOffset":4116},{"name":"group3 pCylinder2_1_texcoords","componentType":5126,"count":31,"min":[0.34375,0.3115600049495697],"max":[0.65625,0.979066014289856],"type":"VEC2","bufferView":1,"byteOffset":1248},{"name":"group3 pCylinder2_1_0_indices","componentType":5123,"count":54,"min":[0],"max":[30],"type":"SCALAR","bufferView":2,"byteOffset":432}],"asset":{"generator":"obj2gltf","version":"2.0"},"buffers":[{"name":"stick","byteLength":6524,"uri":"data:application/octet-stream;base64,"}],"bufferViews":[{"name":"bufferView_0","buffer":0,"byteLength":4488,"byteOffset":0,"byteStride":12,"target":34962},{"name":"bufferView_1","buffer":0,"byteLength":1496,"byteOffset":4488,"byteStride":8,"target":34962},{"name":"bufferView_2","buffer":0,"byteLength":540,"byteOffset":5984,"target":34963}],"materials":[{"name":"initialShadingGroup","pbrMetallicRoughness":{"baseColorFactor":[0.47,0.48,0.18,1],"metallicFactor":0,"roughnessFactor":1},"emissiveFactor":[0,0,0],"alphaMode":"OPAQUE","doubleSided":false},{"name":"lambert4SG","pbrMetallicRoughness":{"baseColorFactor":[0.44,0.09,0.09,1],"metallicFactor":0,"roughnessFactor":1},"emissiveFactor":[0,0,0],"alphaMode":"OPAQUE","doubleSided":false}],"meshes":[{"name":"pSphere2 group3_1","primitives":[{"attributes":{"POSITION":0,"NORMAL":1,"TEXCOORD_0":2},"indices":3,"material":0,"mode":4}]},{"name":"group3 pCylinder2_1","primitives":[{"attributes":{"POSITION":4,"NORMAL":5,"TEXCOORD_0":6},"indices":7,"material":1,"mode":4}]}],"nodes":[{"name":"pSphere2 group3","mesh":0},{"name":"group3 pCylinder2","mesh":1}],"scene":0,"scenes":[{"nodes":[0,1]}]}
