# This file uses centimeters as units for non-parametric coordinates.

mtllib Floor_texture.mtl
g default
v -59.501714 -3.478550 59.411356
v 59.501714 -3.478550 59.411356
v -59.501714 -0.113073 59.411356
v 59.501714 -0.113073 59.411356
v -59.501714 -0.113073 -59.757036
v 59.501714 -0.113073 -59.757036
v -59.501714 -3.478550 -59.757036
v 59.501714 -3.478550 -59.757036
v -59.501714 -0.113073 -0.172840
v 59.501714 -0.113073 -0.172840
v 59.501714 -3.478550 -0.172840
v -59.501714 -3.478550 -0.172840
v 0.000000 -3.478550 59.411356
v 0.000000 -3.478550 -0.172840
v 0.000000 -3.478550 -59.757036
v 0.000000 -0.113073 -59.757036
v 0.000000 -0.113073 -0.172840
v 0.000000 -0.113073 59.411356
vt 0.143125 0.977994
vt 0.161147 0.977994
vt 0.023903 0.012421
vt 0.976097 0.012421
vt 0.077384 0.995242
vt 0.078090 0.974975
vt 0.097651 0.995948
vt 0.098357 0.975681
vt 0.117919 0.996654
vt 0.118625 0.976387
vt 0.179170 0.977994
vt 0.179170 0.996017
vt 0.125102 0.977994
vt 0.125102 0.996017
vt 0.134113 0.996017
vt 0.023903 0.488518
vt 0.976097 0.488518
vt 0.170159 0.996017
vt 0.108491 0.976034
vt 0.170159 0.977994
vt 0.134113 0.977994
vt 0.107785 0.996301
vt 0.152136 0.977994
vt 0.118272 0.986520
vt 0.108138 0.986167
vt 0.098004 0.985815
vt 0.500000 0.964615
vt 0.500000 0.488518
vt 0.152136 0.996017
vt 0.500000 0.012421
vt 0.161147 0.996017
vt 0.077737 0.985109
vt 0.976097 0.964615
vt 0.023903 0.964615
vt 0.143125 0.996017
vn 0.000000 0.000000 1.000000
vn 0.000000 0.000000 1.000000
vn 0.000000 0.000000 1.000000
vn 0.000000 0.000000 1.000000
vn 0.000000 1.000000 0.000000
vn 0.000000 1.000000 0.000000
vn 0.000000 1.000000 0.000000
vn 0.000000 1.000000 0.000000
vn 0.000000 0.000000 -1.000000
vn 0.000000 0.000000 -1.000000
vn 0.000000 0.000000 -1.000000
vn 0.000000 0.000000 -1.000000
vn 0.000000 -1.000000 0.000000
vn 0.000000 -1.000000 0.000000
vn 0.000000 -1.000000 0.000000
vn 0.000000 -1.000000 0.000000
vn 1.000000 0.000000 0.000000
vn 1.000000 0.000000 0.000000
vn 1.000000 0.000000 0.000000
vn 1.000000 0.000000 0.000000
vn -1.000000 0.000000 0.000000
vn -1.000000 0.000000 0.000000
vn -1.000000 0.000000 0.000000
vn -1.000000 0.000000 0.000000
vn 0.000000 1.000000 0.000000
vn 0.000000 1.000000 0.000000
vn 1.000000 0.000000 0.000000
vn 1.000000 0.000000 0.000000
vn 0.000000 -1.000000 0.000000
vn 0.000000 -1.000000 0.000000
vn -1.000000 0.000000 0.000000
vn -1.000000 0.000000 0.000000
vn 0.000000 -1.000000 0.000000
vn 0.000000 -1.000000 0.000000
vn 0.000000 -1.000000 0.000000
vn 0.000000 0.000000 -1.000000
vn 0.000000 0.000000 -1.000000
vn 0.000000 1.000000 0.000000
vn 0.000000 1.000000 0.000000
vn 0.000000 1.000000 0.000000
vn 0.000000 0.000000 1.000000
vn 0.000000 0.000000 1.000000
s 1
g pCube1
usemtl lambert3SG
f 18/29/1 13/23/2 2/2/3 4/31/4
s 2
f 16/27/5 17/28/6 10/17/7 6/33/8
s 3
f 15/26/9 16/32/10 6/6/11 8/8/12
s 4
f 14/25/13 15/26/14 8/8/15 11/19/16
s 5
f 10/18/17 11/20/18 8/11/19 6/12/20
s 6
f 7/13/21 12/21/22 9/15/23 5/14/24
s 2
f 17/28/6 18/30/25 4/4/26 10/17/7
s 5
f 2/2/27 11/20/18 10/18/17 4/31/28
s 4
f 13/24/29 14/25/13 11/19/16 2/10/30
s 6
f 9/15/23 12/21/22 1/1/31 3/35/32
s 4
f 12/22/33 14/25/13 13/24/29 1/9/34
f 7/7/35 15/26/14 14/25/13 12/22/33
s 3
f 5/5/36 16/32/10 15/26/9 7/7/37
s 2
f 9/16/38 17/28/6 16/27/5 5/34/39
f 3/3/40 18/30/25 17/28/6 9/16/38
s 1
f 1/1/41 13/23/2 18/29/1 3/35/42
